<svg xmlns="http://www.w3.org/2000/svg" xmlns:xlink="http://www.w3.org/1999/xlink" width="2000" zoomAndPan="magnify" viewBox="0 0 1500 1499.999933" height="2000" preserveAspectRatio="xMidYMid meet" version="1.0"><defs><clipPath id="e836be96fd"><path d="M 20.238281 17.890625 L 1484.238281 17.890625 L 1484.238281 1481.890625 L 20.238281 1481.890625 Z M 20.238281 17.890625 " clip-rule="nonzero"/></clipPath></defs><path fill="#423d38" d="M 251.972656 775.386719 L 568.738281 775.386719 L 568.738281 1258.324219 L 251.972656 1258.324219 Z M 251.972656 775.386719 " fill-opacity="1" fill-rule="nonzero"/><g clip-path="url(#e836be96fd)"><path fill="#423d38" d="M 1324.722656 17.890625 L 179.964844 17.890625 C 91.75 17.890625 20.238281 89.398438 20.238281 177.617188 L 20.238281 1322.375 C 20.238281 1410.5625 91.75 1482.101562 179.964844 1482.101562 L 1324.722656 1482.101562 C 1412.914062 1482.101562 1484.449219 1410.589844 1484.449219 1322.375 L 1484.449219 177.617188 C 1484.449219 89.398438 1412.941406 17.890625 1324.722656 17.890625 Z M 732.179688 1411.90625 L 190.550781 1411.90625 C 188.878906 1411.90625 187.210938 1411.863281 185.542969 1411.78125 C 183.878906 1411.699219 182.210938 1411.578125 180.550781 1411.414062 C 178.890625 1411.25 177.234375 1411.046875 175.582031 1410.800781 C 173.933594 1410.558594 172.289062 1410.273438 170.652344 1409.945312 C 169.011719 1409.621094 167.386719 1409.253906 165.765625 1408.847656 C 164.148438 1408.445312 162.539062 1408 160.941406 1407.515625 C 159.34375 1407.03125 157.757812 1406.507812 156.1875 1405.945312 C 154.617188 1405.382812 153.058594 1404.78125 151.515625 1404.144531 C 149.972656 1403.503906 148.449219 1402.828125 146.9375 1402.113281 C 145.429688 1401.402344 143.941406 1400.652344 142.46875 1399.863281 C 140.996094 1399.078125 139.542969 1398.253906 138.109375 1397.398438 C 136.679688 1396.539062 135.269531 1395.648438 133.882812 1394.71875 C 132.492188 1393.792969 131.128906 1392.832031 129.789062 1391.835938 C 128.445312 1390.84375 127.132812 1389.816406 125.839844 1388.757812 C 124.550781 1387.699219 123.285156 1386.609375 122.050781 1385.488281 C 120.8125 1384.367188 119.605469 1383.21875 118.421875 1382.039062 C 117.242188 1380.855469 116.089844 1379.648438 114.96875 1378.414062 C 113.847656 1377.175781 112.757812 1375.914062 111.699219 1374.621094 C 110.640625 1373.332031 109.613281 1372.015625 108.617188 1370.675781 C 107.625 1369.335938 106.664062 1367.972656 105.734375 1366.582031 C 104.808594 1365.195312 103.914062 1363.785156 103.054688 1362.355469 C 102.199219 1360.921875 101.375 1359.472656 100.585938 1358 C 99.800781 1356.527344 99.050781 1355.039062 98.335938 1353.527344 C 97.621094 1352.019531 96.945312 1350.496094 96.304688 1348.953125 C 95.667969 1347.410156 95.066406 1345.851562 94.503906 1344.28125 C 93.941406 1342.710938 93.417969 1341.125 92.929688 1339.527344 C 92.445312 1337.929688 92 1336.324219 91.59375 1334.703125 C 91.1875 1333.085938 90.824219 1331.457031 90.496094 1329.820312 C 90.171875 1328.183594 89.882812 1326.539062 89.640625 1324.886719 C 89.394531 1323.238281 89.1875 1321.582031 89.023438 1319.917969 C 88.859375 1318.257812 88.738281 1316.59375 88.65625 1314.925781 C 88.574219 1313.257812 88.53125 1311.589844 88.53125 1309.921875 L 88.53125 623.210938 L 568.738281 623.210938 L 568.738281 241.664062 L 88.53125 241.664062 L 88.53125 190.101562 C 88.53125 188.433594 88.570312 186.761719 88.652344 185.097656 C 88.734375 183.429688 88.859375 181.761719 89.023438 180.101562 C 89.183594 178.441406 89.390625 176.785156 89.632812 175.132812 C 89.878906 173.480469 90.164062 171.835938 90.492188 170.199219 C 90.816406 168.5625 91.183594 166.933594 91.585938 165.3125 C 91.992188 163.695312 92.4375 162.085938 92.921875 160.488281 C 93.40625 158.890625 93.929688 157.304688 94.492188 155.734375 C 95.054688 154.160156 95.65625 152.601562 96.296875 151.0625 C 96.933594 149.519531 97.609375 147.992188 98.324219 146.484375 C 99.039062 144.972656 99.789062 143.484375 100.578125 142.011719 C 101.363281 140.539062 102.1875 139.085938 103.042969 137.652344 C 103.902344 136.222656 104.796875 134.8125 105.722656 133.421875 C 106.652344 132.035156 107.613281 130.671875 108.605469 129.328125 C 109.601562 127.988281 110.628906 126.671875 111.6875 125.382812 C 112.746094 124.089844 113.835938 122.828125 114.957031 121.589844 C 116.078125 120.351562 117.230469 119.144531 118.410156 117.964844 C 119.589844 116.78125 120.800781 115.632812 122.039062 114.511719 C 123.273438 113.390625 124.539062 112.300781 125.828125 111.238281 C 127.121094 110.179688 128.433594 109.152344 129.777344 108.160156 C 131.117188 107.164062 132.480469 106.203125 133.871094 105.277344 C 135.257812 104.347656 136.667969 103.457031 138.101562 102.597656 C 139.53125 101.738281 140.984375 100.917969 142.457031 100.128906 C 143.929688 99.34375 145.421875 98.589844 146.929688 97.878906 C 148.441406 97.164062 149.964844 96.488281 151.507812 95.847656 C 153.050781 95.210938 154.609375 94.609375 156.179688 94.046875 C 157.753906 93.484375 159.335938 92.960938 160.933594 92.476562 C 162.53125 91.992188 164.140625 91.546875 165.761719 91.140625 C 167.378906 90.734375 169.007812 90.367188 170.644531 90.042969 C 172.285156 89.71875 173.929688 89.433594 175.578125 89.1875 C 177.230469 88.941406 178.886719 88.738281 180.550781 88.574219 C 182.210938 88.410156 183.875 88.289062 185.542969 88.207031 C 187.210938 88.125 188.878906 88.082031 190.550781 88.082031 L 732.179688 88.082031 Z M 1416.160156 466.980469 L 1252.71875 466.980469 L 1252.71875 241.664062 L 972.566406 241.664062 L 972.566406 1258.324219 L 1252.71875 1258.324219 L 1252.71875 1063.988281 L 1416.160156 1063.988281 L 1416.160156 1309.921875 C 1416.160156 1311.589844 1416.121094 1313.261719 1416.039062 1314.925781 C 1415.957031 1316.59375 1415.832031 1318.261719 1415.667969 1319.921875 C 1415.503906 1321.582031 1415.300781 1323.238281 1415.054688 1324.890625 C 1414.8125 1326.542969 1414.527344 1328.1875 1414.199219 1329.824219 C 1413.875 1331.460938 1413.507812 1333.089844 1413.101562 1334.710938 C 1412.699219 1336.328125 1412.253906 1337.9375 1411.769531 1339.535156 C 1411.28125 1341.132812 1410.757812 1342.71875 1410.195312 1344.289062 C 1409.632812 1345.863281 1409.035156 1347.421875 1408.394531 1348.960938 C 1407.757812 1350.503906 1407.078125 1352.03125 1406.367188 1353.539062 C 1405.652344 1355.050781 1404.902344 1356.539062 1404.113281 1358.011719 C 1403.328125 1359.484375 1402.503906 1360.9375 1401.644531 1362.371094 C 1400.789062 1363.800781 1399.894531 1365.210938 1398.96875 1366.601562 C 1398.039062 1367.988281 1397.078125 1369.351562 1396.082031 1370.695312 C 1395.089844 1372.035156 1394.0625 1373.351562 1393.003906 1374.640625 C 1391.945312 1375.933594 1390.855469 1377.195312 1389.734375 1378.433594 C 1388.613281 1379.671875 1387.460938 1380.878906 1386.28125 1382.058594 C 1385.097656 1383.242188 1383.890625 1384.390625 1382.652344 1385.511719 C 1381.417969 1386.632812 1380.152344 1387.722656 1378.863281 1388.785156 C 1377.570312 1389.84375 1376.253906 1390.871094 1374.914062 1391.863281 C 1373.574219 1392.859375 1372.207031 1393.820312 1370.820312 1394.746094 C 1369.433594 1395.675781 1368.023438 1396.566406 1366.589844 1397.425781 C 1365.15625 1398.285156 1363.707031 1399.105469 1362.234375 1399.894531 C 1360.761719 1400.679688 1359.269531 1401.433594 1357.761719 1402.144531 C 1356.25 1402.859375 1354.726562 1403.535156 1353.183594 1404.175781 C 1351.640625 1404.8125 1350.082031 1405.414062 1348.511719 1405.976562 C 1346.9375 1406.539062 1345.355469 1407.0625 1343.757812 1407.546875 C 1342.160156 1408.03125 1340.550781 1408.476562 1338.929688 1408.882812 C 1337.308594 1409.289062 1335.683594 1409.65625 1334.042969 1409.980469 C 1332.40625 1410.304688 1330.761719 1410.589844 1329.109375 1410.835938 C 1327.460938 1411.082031 1325.804688 1411.285156 1324.140625 1411.449219 C 1322.480469 1411.613281 1320.816406 1411.734375 1319.148438 1411.816406 C 1317.480469 1411.898438 1315.8125 1411.941406 1314.140625 1411.941406 L 809.128906 1411.941406 L 809.128906 88.082031 L 1314.140625 88.082031 C 1315.8125 88.082031 1317.480469 88.125 1319.148438 88.207031 C 1320.816406 88.289062 1322.480469 88.410156 1324.140625 88.574219 C 1325.804688 88.738281 1327.460938 88.941406 1329.109375 89.1875 C 1330.761719 89.433594 1332.40625 89.71875 1334.042969 90.042969 C 1335.683594 90.367188 1337.308594 90.734375 1338.929688 91.140625 C 1340.550781 91.546875 1342.160156 91.992188 1343.757812 92.476562 C 1345.355469 92.960938 1346.9375 93.484375 1348.511719 94.046875 C 1350.082031 94.609375 1351.640625 95.210938 1353.183594 95.847656 C 1354.726562 96.488281 1356.25 97.164062 1357.761719 97.878906 C 1359.269531 98.589844 1360.761719 99.34375 1362.234375 100.128906 C 1363.707031 100.917969 1365.15625 101.738281 1366.589844 102.597656 C 1368.023438 103.457031 1369.433594 104.347656 1370.820312 105.277344 C 1372.207031 106.203125 1373.574219 107.164062 1374.914062 108.160156 C 1376.253906 109.152344 1377.570312 110.179688 1378.863281 111.238281 C 1380.152344 112.300781 1381.417969 113.390625 1382.652344 114.511719 C 1383.890625 115.632812 1385.097656 116.78125 1386.28125 117.964844 C 1387.460938 119.144531 1388.613281 120.351562 1389.734375 121.589844 C 1390.855469 122.828125 1391.945312 124.089844 1393.003906 125.382812 C 1394.0625 126.671875 1395.089844 127.988281 1396.082031 129.328125 C 1397.078125 130.671875 1398.039062 132.035156 1398.96875 133.421875 C 1399.894531 134.8125 1400.789062 136.222656 1401.644531 137.652344 C 1402.503906 139.085938 1403.328125 140.539062 1404.113281 142.011719 C 1404.902344 143.484375 1405.652344 144.972656 1406.367188 146.484375 C 1407.078125 147.992188 1407.753906 149.519531 1408.394531 151.0625 C 1409.035156 152.601562 1409.632812 154.160156 1410.195312 155.734375 C 1410.757812 157.304688 1411.28125 158.890625 1411.765625 160.488281 C 1412.253906 162.085938 1412.699219 163.695312 1413.101562 165.3125 C 1413.507812 166.933594 1413.875 168.5625 1414.199219 170.199219 C 1414.527344 171.835938 1414.8125 173.480469 1415.054688 175.132812 C 1415.300781 176.785156 1415.503906 178.441406 1415.667969 180.101562 C 1415.832031 181.761719 1415.957031 183.429688 1416.039062 185.097656 C 1416.121094 186.761719 1416.160156 188.433594 1416.160156 190.101562 Z M 1416.160156 466.980469 " fill-opacity="1" fill-rule="nonzero"/></g></svg>